<svg xmlns="http://www.w3.org/2000/svg" xml:space="preserve" width="286" height="286" style="shape-rendering:geometricPrecision;text-rendering:geometricPrecision;image-rendering:optimizeQuality;fill-rule:evenodd;clip-rule:evenodd" viewBox="0 0 44.6 44.49"><path d="M21.67 33.71c0-.91 1.39-.91 1.39 0 0 .9-1.39.9-1.39 0zm5.76-24.36 5.91-5.91a8.76 8.76 0 0 0-5.77-2.15c-2.43 0-4.64.99-6.24 2.58-.63.64-1.17 1.37-1.59 2.17l7.69 3.31zm6.82-5L28.3 10.3l2.45 8.05a8.71 8.71 0 0 0 3.06-1.99c1.6-1.6 2.59-3.81 2.59-6.24 0-2.21-.81-4.23-2.15-5.77zm-4.73 14.38-2.47-8.14-7.82-3.36c-.31.9-.48 1.88-.48 2.89 0 2.43.98 4.64 2.58 6.24 1.6 1.6 3.81 2.58 6.24 2.58.67 0 1.32-.07 1.95-.21zm5.21-1.46a10.088 10.088 0 0 1-7.16 2.96c-2.79 0-5.32-1.13-7.15-2.96a10.01 10.01 0 0 1-2.12-3.09H6.01c-.08 0-.15.03-.21.08-.05.06-.09.13-.09.21v22.8h11.83v.65c0 .28.11.54.3.72.19.19.44.31.73.31h7.55c.29 0 .54-.12.73-.31.19-.18.3-.44.3-.72v-.65h11.83V14.66c0-.13-.06-.25-.15-.34a.46.46 0 0 0-.34-.14h-1.65c-.51 1.16-1.23 2.21-2.11 3.09zm-16.89-4.38c-.15-.53-.26-1.07-.32-1.63H5.07c-.68 0-1.29.28-1.74.72a2.44 2.44 0 0 0-.72 1.74v23.55h1.81v-22.8a1.59 1.59 0 0 1 1.59-1.58h11.83zm-.38-2.92c.04-2.74 1.16-5.21 2.96-7.01C22.25 1.13 24.78 0 27.57 0c2.8 0 5.33 1.13 7.16 2.96 1.79 1.8 2.92 4.27 2.96 7.01h1.27c1.09 0 2.07.44 2.78 1.16.72.71 1.16 1.69 1.16 2.78v23.36h1.7v3.61c0 .99-.41 1.9-1.06 2.55a3.59 3.59 0 0 1-2.55 1.06H3.61c-.99 0-1.9-.4-2.55-1.06A3.615 3.615 0 0 1 0 40.88v-3.61h1.32V13.72c0-1.03.42-1.97 1.1-2.65.68-.68 1.62-1.1 2.65-1.1h12.39zm20.17 1.29c-.07.56-.18 1.1-.32 1.63h1.18c.49 0 .93.2 1.25.52.33.32.53.76.53 1.25v22.61h1.34V13.91c0-.73-.3-1.39-.78-1.87-.48-.48-1.14-.78-1.87-.78h-1.33zM8.75 17.48c0-.2.06-.26.26-.26h8.33v7.12H8.75v-6.86zm14.31 6.94h14.4v-1.47h-14.4v1.47zm-12.92-2.69c0 .9-.13 1.31.26 1.31h5.29c.38 0 .26-.41.26-1.31 0-.2-.06-.26-.26-.26H10.4c-.2 0-.26.06-.26.26zm0-2.86c0 .9-.13 1.3.26 1.3h5.29c.38 0 .26-.4.26-1.3 0-.2-.06-.26-.26-.26H10.4c-.2 0-.26.06-.26.26zM34.51 41.6h5.81v-1.48h-5.81v1.48zM20.2 24.42h1.47v-1.47H20.2v1.47zM4.41 41.6h1.48v-1.48H4.41v1.48zm2.87 0h1.47v-1.48H7.28v1.48zm2.86 0h1.47v-1.48h-1.47v1.48zm6.2-3.04H1.29v2.32c0 .64.26 1.22.68 1.64.42.42 1 .68 1.64.68h37.38c.63 0 1.21-.26 1.63-.68.43-.42.69-1 .69-1.64v-2.32H28.35c-.11.38-.31.72-.59 1-.42.42-1 .68-1.64.68h-7.55c-.64 0-1.22-.26-1.64-.68-.28-.28-.48-.62-.59-1zM7.28 16.01v9.63c0 .2.06.26.26.26h11.27V15.75H7.54c-.2 0-.26.06-.26.26zm2.86 17.7c0 .46-.25.69-.78.69-.42 0-.79-.73-.38-1.16.39-.4 1.16-.22 1.16.47zM34.6 32.4c0-1.45 1.95-.63 1.18.32-.4.5-1.18.14-1.18-.32zm-18.65-2.34c-.99 0-.9-1.3 0-1.3.86 0 .86 1.3 0 1.3zm12.92-1.91c0-1.31 1.31-.83 1.31-.34 0 1.36-1.31.82-1.31.34zm-1.47-.43.09.95-1.98 1.59c-.69.56-1.36 1.06-2.01 1.62-1.04-.55-1.48-.41-2.43.09-4.15-2.78-2.7-1.54-3.04-3.03-.41-1.82-2.75-2.22-3.81-.86-.48.62-.44.85-.44 1.89l-3.03 2c-1.71-1.14-3.36.16-3.45 1.66-.11 1.92 2.42 3.14 3.85 1.44.48-.56.46-.9.46-1.89 4.13-2.76 2.53-1.86 3.98-1.62.89.14 1.24-.26 1.66-.37l3.04 1.99c-.76 3.23 4.25 3.7 4.25.53 0-.44-.08-.39-.09-.79.27-.07.31-.17.52-.34l3.38-2.69c.33 0 1.23.66 2.35-.09.65.44 2.03 1.57 2.51 1.82-.77 1.62 1.48 3.74 3.3 2.44.65-.47 1.07-1.28.84-2.33-.23-1.11-1.19-1.58-2.32-1.58-1.49 0 .12 1.09-2.82-1.08-1.05-.77-.3-.26-.58-1.59-.32-1.54-2.33-2.24-3.52-1.13-.33.31-.71.77-.71 1.37z" style="fill:#fff"/></svg>