<svg xmlns="http://www.w3.org/2000/svg" xml:space="preserve" width="286" height="291" style="shape-rendering:geometricPrecision;text-rendering:geometricPrecision;image-rendering:optimizeQuality;fill-rule:evenodd;clip-rule:evenodd" viewBox="0 0 44.6 45.37"><path d="m35.69 35.31 6.86 6.81-1.24 1.28-6.74-6.79c.15-.22.35-.39.57-.61.29-.28.34-.38.55-.69zM11.39 8.16H13V6.45h-1.61v1.71zM6.45 1.61h1.71V0H6.45v1.61zm-3.22 0h1.71V0H3.23v1.61zM0 1.61h1.71V0H0v1.61zm4.84 6.27c0 .22.07.28.29.28h1.42V6.45H4.84v1.43zm3.23-1.14c0 1.74-.34 1.42 1.71 1.42V6.45c-1.13 0-1.71-.16-1.71.29zM6.45 23.73v4.65h1.71v-4.94H6.74c-.22 0-.29.07-.29.29zM13 28.38h1.62v-7.31H13v7.31zm-3.22 0h1.61V18.6H9.78v9.78zm11.48 3.23h11.01c-.31 1.18-2.23 2.45-3.64 2.91-2.68.87-5.83-.35-7.18-2.53l-.19-.38zm-.95-3.14c0-1.22.27-2.16.7-3 .2-.41.43-.77.7-1.1.44-.53.4-.54.97-.93v4.94h1.71v-5.79c0-.41 1.16-.57 1.52-.57v6.36h1.71v-6.36c.37 0 1.52.16 1.52.57v5.79h1.71v-4.94c.71.48 1.25 1.18 1.65 1.96 1.17 2.32.56 3.44.53 4.59H20.5c-.01-.54-.19-.89-.19-1.52zm5.98 7.98c2.86 0 4.4-.58 6.39-2.54 2.28-2.26 2.84-6.17 1.43-8.98-.86-1.7-2.19-3.25-4.01-3.97-.52-.21-.83-.33-1.49-.5-2.92-.74-6.07.34-7.95 2.58-.2.23-.28.31-.47.57l-.74 1.26c-1.89 4.13-.3 8.67 3.61 10.73.77.4 2.07.85 3.23.85zM1.61 7.78v24.97c0 1.86.74 3.39 2.44 4.2.43.2 1.32.35 1.93.35h10.25v-1.71H5.51c-1.09 0-2.19-1.1-2.19-2.18V7.12c0-1.08 1.1-2.18 2.19-2.18h32.84c1.25 0 2.18 1.2 2.18 2.65v25.35c0 1.25-.44 1.4-.57 1.89l1.14 1.05c.3-.2.53-.54.69-.92.13-.29.35-.92.35-1.26V6.83c0-1.71-1.89-3.6-4.08-3.6H5.88c-2.69 0-4.27 1.95-4.27 4.55zm39.82 37.59h-.22c-.5-.08-1.01-.76-2.08-1.83-.78-.78-5.54-5.44-5.81-5.86-.25.13-.36.18-.61.34-3.63 2.42-9.07 2.21-12.57-.45-1.27-.95-1.7-1.41-2.65-2.67-.24-.32-.46-.68-.66-1.05-.55-1.03-.83-2.24-1.17-2.24H4.84v-1.62h10.63c0-1.89-.31-1.66.21-4.15.12-.55.55-1.52.55-2.02v-8.44h1.61v5.88c.43-.28.49-.52.83-.88.38-.4.79-.49.79-.83v-5.79h1.71v4.75c.51-.35.97-.47 1.51-.76 0-.6.01-1.2 0-1.8 0-.45-.17-1.43.29-1.43 1.69 0 1.43-.17 1.42 1.24v1.51c.32-.15 1.02-.18 1.52-.18V11.3h1.71v5.79c.5 0 1.2.03 1.52.18v-3.98c0-4.32-.45-3.61 1.71-3.61v7.88c0 .4.67.38 1.52.95v-4.46c-.01-1.34-.3-1.14 1.71-1.14v6.64c0 .27.21.36.37.48.75.55.68.86 1.24 1.23v-5.03h1.61v7.59c0 .51.44 1.49.57 2.1.5 2.47.19 2.22.19 4.07h.86v1.62c-1.68 0-1.17-.12-1.66 1.1-.17.44-.42.72-.53 1.18.27.4 3.39 3.43 4.01 4.05 4.99 4.99 4.71 3.66 1.57 6.84-.36.36-.63.55-.88.59zM17.08 28.76c0-3.13.98-5.39 2.78-7.19 1.25-1.24 2.72-2.14 4.46-2.57 2.39-.59 4.34-.33 6.58.59l1.44.84c3.86 2.78 5.23 7.91 3.16 12.13-.77 1.57-1.85 2.84-3.3 3.81-.5.34-.92.62-1.51.87-3.18 1.33-6.54 1.03-9.35-.87-2.44-1.64-4.26-4.66-4.26-7.61z" style="fill:#fff"/></svg>