<svg xmlns="http://www.w3.org/2000/svg" xml:space="preserve" width="316" height="316" style="shape-rendering:geometricPrecision;text-rendering:geometricPrecision;image-rendering:optimizeQuality;fill-rule:evenodd;clip-rule:evenodd" viewBox="0 0 35.48 35.52"><defs><style>.fil0{fill:#fff}</style></defs><g id="Camada_x0020_1"><path class="fil0" d="M27.71 32.02h3.24v1.79c-.01.87-.3.64-1.09.64h-1.62c-.47 0-.53-.02-.53-.51v-1.92zm-21.77 0H9.2v1.79c0 .87-.29.64-1.08.64H6.5c-.48 0-.56-.01-.56-.51v-1.92zm.43-12.44c1.27-.12 1.11 1.87 2.89 2.05.76.07 1.69.01 2.47.01 4.11.03 8.29 0 12.41 0 .95 0 4.04.15 4.72-.24 1.13-.66 1.08-2.55 2.84-1.54 1.48.85 1.48 1.95 1.46 3.49-.01.82-.01 1.66 0 2.48 0 .54.15 1.84-.29 2.19-.4.31-1.79.17-2.33.18H8.2c-.83 0-1.65 0-2.49.01-.81.02-1.48.07-1.56-.91-.06-.72-.01-1.73 0-2.49 0-.81-.04-1.68 0-2.48.03-.75.17-1.24.67-1.81.33-.38 1.06-.89 1.55-.94zm1.85-.02h20.87c-.16.29-.41.58-.61.84-.25.3-.86.2-1.24.2h-17.2c-.43 0-.91.11-1.21-.22-.17-.19-.48-.6-.61-.82zm23.93-1.5c.05-.05 1.89-.05 2.1-.03.2.02.18.16.18.35-.01.18 0 .36 0 .54 0 .46.13.71-.34.71-1.24-.01-.88.12-1.3-.3l-.67-.39c-.09-.04-.29-.14-.32-.21-.06-.14-.02-.39.05-.46.13-.17.25-.15.3-.21zm-26.61.68c-.12.12-.47.28-.65.37-.16.08-.44.32-.57.44-.15.14-.72.08-.95.08-.53 0-.46-.03-.46-.54 0-1.21-.23-1.06.95-1.06h1.02c.36 0 .44.07.67.33l-.01.38zm16.7-.23c.13-.31.61-.85.9-1.01.53-.3.85-.45 1.49-.45.57 0 1.01.16 1.47.46.3.18.76.67.89 1.01l-4.75-.01zM2.55 1.07c.46-.09 2.13-.02 2.71-.02h2.72c.84 0 1.61-.13 2.33.4.65.48.8 1.16.78 1.92-.04 1.82.01 3.65 0 5.46-.01.96.02 1.44.37 2.34.04.12.45.78.24.79-.12 0-.68-.37-.87-.45-1.35-.58-3.57-.4-5.06-.4-.9 0-1.84.03-2.74.01-.71-.02-1.37-.33-1.73-.97-.41-.71-.28-1.64-.28-2.45V4.97c0-.63-.08-2.08.11-2.61.22-.59.8-1.15 1.42-1.29zm9.55 7.67h13.57c.48 0 1.44.18 1.41-.53-.03-.69-.96-.51-1.45-.51H12.1V5.31c0-.77.04-1.64 0-2.39-.07-1.25-.81-2.38-2.04-2.73C9.04-.1 6.63.03 5.46.03c-1.28 0-3.17-.22-4.22.56C-.07 1.57 0 2.63 0 4.13.01 5.72.02 7.32 0 8.9c-.02 1.24.55 2.52 1.77 2.99 1.04.4 3.33.23 4.52.25 0 .38-.12.77-.13 1.21-.01.48-.07.83.54.81.45-.01.41-.44.43-.59.02-.22.06.02.08-.24 0-.1-.01-.23.01-.33.01-.13.05-.08.05-.27.01-.23.06-.33.06-.6.8 0 1.72-.11 2.47.12.78.24 1.06.51 1.74.82.31.14.67.4 1.02.24 1.24-.55-.08-1.95-.17-2.62l17.43.01.92 7.82H28.1c-.01-.36-.59-1.09-.85-1.4-.12-.14-.29-.23-.42-.34-.3-.26-.61-.4-.98-.53-.19-.06-.4-.15-.6-.15-.3-.01-.34-.09-.64-.09-.75.02-1.63.3-2.22.78-.13.11-.3.2-.41.34-.08.1-.27.35-.34.42-.15.14-.5.79-.51.97-4.84 0-9.73-.03-14.56 0 .01-.73.08-.22.09-.71 0-.21.04-.17.06-.33.01-.13 0-.27.01-.41.01-.31.27-1.13.09-1.4-.37-.53-.86-.2-.94.08-.07.25-.18 1.11-.19 1.38-.37-.02-.58-.14-1.03-.14H3.5c-.68 0-1.24.05-1.53.76-.18.42-.17 1.69-.02 2.12.25.71.86.8 1.52.8-.03.45-.36.36-.36 1.84v4.39c0 .69.01 1.16.48 1.68l-.29.44c-.18.26-.08.25-.17.53-.05.14-.04 1.21.02 1.36.13.35.28.58.6.84.32.26.72.27 1.15.27v1.55c0 .59-.07.77.24 1.28.52.85 1.57.65 2.44.65.85 0 1.94.19 2.44-.64.3-.49.22-.76.22-1.32v-1.52h9.71c.79 0 1.66-.04 2.43-.01.37.02.87.09 1.21-.02.29-.09.53-.35.4-.66-.26-.59-1.57-.34-2.12-.35-.8-.01-1.6-.01-2.41-.01-4.44 0-8.88.01-13.33-.01-.41 0-.83.05-1.23.04-.9-.01-1.01-1.06-.62-1.55.3-.38 1.68-.19 2.2-.2 3.2-.07 6.47-.01 9.68-.01h9.69c1.61 0 3.24-.02 4.85.01.48.01 1.97-.13 2.27.13.41.36.41 1.55-.43 1.62-.39.03-.85-.03-1.25-.04-.4 0-.8.02-1.21.02-.8-.01-1.61-.01-2.41 0-.56 0-1.88-.17-2.25.21-.23.24-.15.56.12.72.33.21.76.15 1.13.11v1.55c0 .58-.08.78.23 1.3.48.82 1.61.63 2.43.63.87 0 1.92.19 2.44-.65.29-.48.22-.76.22-1.31v-1.52c.54 0 .93.07 1.39-.16.37-.19.57-.43.73-.8.13-.32.14-1.06.09-1.44-.09-.71-.43-.92-.48-1.04.48-.38.48-1.12.48-1.71V24.7c0-.65.05-2.65-.07-3.21-.04-.18-.26-.69-.27-.82.85 0 1.13-.08 1.51-.83.16-.32.1-.72.1-1.08v-.58c-.01-.32-.03-.18-.13-.44-.29-.74-.9-.75-1.58-.75h-1.15c-.33 0-.8.15-1.01.12-.01-.17 0-.38-.02-.55-.01-.18-.09-.25-.09-.46 0-.26-.06-.72-.11-.98-.05-.28-.05-.73-.1-1.02-.06-.34-.11-.64-.11-.98-.01-.41-.13-1.02-.21-1.44-.04-.16 0-.34-.03-.52-.06-.46-.2-.51.16-.83.77-.68-.06-2.97-2.31-2.62-.56.08-.79 1.05.26 1.03.61 0 1.33.11 1.28.91H12.11l-.01-.91z"/><path class="fil0" d="M15.52 23.24c.42-.1 2.49-.02 3.08-.02h1.55c.45 0 1.11-.04 1.53 0 1.72.18 2.14 2.87.1 3.38-.25.06-5.76.07-6.14.02-1.9-.3-1.98-2.94-.12-3.38zm0-1.02c-2.43.36-3.25 3.33-1.36 4.84.98.79 2.33.59 3.53.59.76 0 3.57.03 4.1-.03 2.4-.27 3.27-3.35 1.37-4.84-1-.78-2.33-.58-3.54-.58h-2.06c-.57 0-1.52-.06-2.04.02zM8.71 3.78c.43-.17.95.27.69.73-.11.19-.58.69-.76.88-.24.25-.52.62-.75.89-.23.28-.55.58-.77.87-.24.33-1.29 1.64-1.62 1.67-.44.05-1.64-.95-2.05-1.22-.3-.19-.81-.41-.83-.81-.02-.5.53-.66.94-.36.32.23.65.44.98.66.3.19.76.63 1.12.17.27-.34 2.94-3.44 3.05-3.48zm1.68 1c.41-1.29-.83-2.47-2.02-1.96-.64.27-1.64 1.57-2.1 2.15-.27.35-.76.79-.99 1.14-.11.18-.1.2-.28.05-.22-.17-.71-.48-.95-.64-1.06-.69-2.4-.03-2.45 1.19-.06 1.17 1.17 1.68 1.99 2.25.89.62 1.94 1.47 2.93.44.67-.69 1.36-1.52 1.98-2.27.42-.49 1.73-1.85 1.89-2.35zM6.24 25.28c-.08-.27-.02-1.32.1-1.58.22-.49.69-.55 1.15-.55 1.23 0 1.69-.1 2.5.89.24.29.41.99.28 1.34-.2.56-.74.47-1.22.47H7.36c-.49 0-.98-.02-1.12-.57zm.62-3.15c-.64.21-1.24.58-1.5 1.23-.23.55-.24 1.89-.03 2.44.26.66.94 1.06 1.63 1.1.81.03 1.94.03 2.75-.01.72-.03 1.27-.55 1.54-1.18.27-.61 0-1.65-.37-2.18-.4-.57-.82-1.01-1.5-1.22-.36-.11-.8-.21-1.18-.2-.24.01-1.18-.03-1.34.02zM28.54 23.17c.18-.04 1.43-.03 1.68-.02.36.02.82.46.87.82.04.3.06 1.36-.12 1.57-.37.43-.86.31-1.38.31h-1.7c-.55 0-.9-.23-.89-.82.01-.85.72-1.65 1.54-1.86zm-.01-1.04c-.74.23-1.22.37-1.77.96-.42.45-.81 1.33-.81 1.94 0 .66.43 1.45 1.06 1.7.69.28 1.82.16 2.58.17.92 0 1.42.07 2.11-.63.56-.57.89-3.18-.69-3.92-.3-.14-.8-.26-1.13-.24-.26 0-1.16-.04-1.35.02z"/></g></svg>