<svg xmlns="http://www.w3.org/2000/svg" xml:space="preserve" width="439" height="204" style="shape-rendering:geometricPrecision;text-rendering:geometricPrecision;image-rendering:optimizeQuality;fill-rule:evenodd;clip-rule:evenodd" viewBox="0 0 78.59 36.43"><defs><style>.fil0{fill:#fff;fill-rule:nonzero}</style></defs><g id="Camada_x0020_1"><g id="_2700543968368"><path class="fil0" d="M18.04 32.39c-.38 0-.67.14-.88.42-.21.29-.31.69-.31 1.19 0 1.06.4 1.59 1.19 1.59.34 0 .74-.08 1.21-.25v.85c-.39.16-.82.24-1.3.24-.69 0-1.22-.21-1.59-.63-.36-.42-.55-1.02-.55-1.8 0-.5.09-.93.27-1.3.18-.37.44-.66.78-.85.34-.2.73-.3 1.18-.3.46 0 .93.11 1.39.33l-.32.82c-.18-.08-.36-.16-.54-.22a1.64 1.64 0 0 0-.53-.09z"/><path id="1" class="fil0" d="m23.17 36.37-.34-1.14H21.1l-.35 1.14h-1.08l1.67-4.77h1.23l1.69 4.77h-1.09zm-.58-1.98c-.32-1.03-.5-1.6-.54-1.74-.04-.13-.07-.24-.09-.32-.07.28-.27.97-.61 2.06h1.24z"/><path id="2" class="fil0" d="M25.86 33.72h.33c.31 0 .55-.05.7-.16.15-.1.23-.27.23-.5 0-.22-.08-.38-.23-.48-.16-.09-.4-.14-.72-.14h-.31v1.28zm0 .82v1.83h-1.01v-4.75h1.39c.64 0 1.12.11 1.43.35.31.23.46.59.46 1.07 0 .28-.07.53-.23.74-.15.22-.37.39-.65.52.72 1.06 1.18 1.75 1.4 2.07h-1.12l-1.13-1.83h-.54z"/><path id="3" class="fil0" d="M29.25 36.37v-4.75h1v4.75z"/><path id="4" class="fil0" d="m34.36 36.37-.35-1.14h-1.73l-.34 1.14h-1.09l1.68-4.77h1.23l1.68 4.77h-1.08zm-.59-1.98c-.32-1.03-.5-1.6-.54-1.74-.04-.13-.06-.24-.08-.32-.07.28-.28.97-.62 2.06h1.24z"/><path id="5" class="fil0" d="M38.06 32.39c-.38 0-.68.14-.88.42-.21.29-.32.69-.32 1.19 0 1.06.4 1.59 1.2 1.59.33 0 .73-.08 1.21-.25v.85c-.39.16-.83.24-1.31.24-.69 0-1.22-.21-1.58-.63-.37-.42-.55-1.02-.55-1.8 0-.5.09-.93.27-1.3.18-.37.44-.66.77-.85.34-.2.73-.3 1.19-.3.46 0 .92.11 1.39.33l-.33.82c-.18-.08-.36-.16-.54-.22-.17-.06-.35-.09-.52-.09z"/><path id="6" class="fil0" d="M40.28 36.37v-4.75h1v4.75z"/><path id="7" class="fil0" d="M44.5 32.39c-.38 0-.68.14-.88.42-.21.29-.32.69-.32 1.19 0 1.06.4 1.59 1.2 1.59.33 0 .73-.08 1.21-.25v.85c-.39.16-.83.24-1.31.24-.69 0-1.22-.21-1.58-.63-.37-.42-.55-1.02-.55-1.8 0-.5.09-.93.27-1.3.18-.37.44-.66.77-.85.34-.2.73-.3 1.19-.3.46 0 .92.11 1.39.33l-.33.82c-.18-.08-.35-.16-.53-.22-.18-.06-.36-.09-.53-.09z"/><path id="8" class="fil0" d="m49.63 36.37-.35-1.14h-1.73l-.34 1.14h-1.09l1.68-4.77h1.23l1.68 4.77h-1.08zm-.59-1.98c-.32-1.03-.5-1.6-.54-1.74-.04-.13-.07-.24-.08-.32-.07.28-.28.97-.62 2.06h1.24z"/><path id="9" class="fil0" d="m55.16 31.62-1.78 4.75h-.89l1.76-4.75z"/><path id="10" class="fil0" d="M60.25 36.37h-2.74v-4.75h2.74v.82h-1.73v1.04h1.61v.83h-1.61v1.22h1.73z"/><path id="11" class="fil0" d="M64.05 35.05c0 .43-.16.76-.47 1.01-.31.25-.74.37-1.29.37-.5 0-.95-.09-1.34-.28v-.94c.32.14.59.24.81.3.22.06.43.09.61.09.22 0 .39-.04.51-.13.12-.08.18-.21.18-.37 0-.1-.03-.18-.08-.25a.958.958 0 0 0-.23-.21c-.1-.07-.31-.18-.62-.32-.29-.14-.5-.27-.65-.4-.14-.12-.26-.27-.35-.44-.08-.16-.13-.36-.13-.58 0-.42.15-.75.43-.99.29-.24.68-.36 1.18-.36.25 0 .48.03.71.09.22.06.46.14.7.24l-.32.79a4.41 4.41 0 0 0-.63-.22c-.17-.04-.33-.06-.49-.06-.19 0-.34.04-.44.13-.1.09-.15.21-.15.35 0 .09.02.16.06.23.04.07.11.13.2.19.09.06.3.17.63.33.45.22.75.43.92.64.16.22.25.48.25.79z"/><path d="M54.79 25.59h.02c2.3 0 4.77-2 5.4-4.36.16-.61.24-1.2.25-1.76v-.08c-.01-1.94-.98-3.64-2.91-5.15l-.3-.24-1.62 1.64.25.3c.17.21.36.4.54.59.15.15.29.29.42.44.88 1.02 1.23 1.9 1.14 2.85-.18 1.96-1.64 3.28-3.61 3.28-.32 0-.64-.04-.97-.1-1.46-.31-2.4-1.11-2.82-2.38-.51-1.53.17-2.67.83-3.35 1.08-1.12 2.24-2.2 3.35-3.25.5-.48 1-.95 1.5-1.42.25-.24.5-.47.76-.71.79-.73 1.61-1.48 2.27-2.37a5.821 5.821 0 0 0 1.08-4.42 5.829 5.829 0 0 0-2.4-3.87A6.552 6.552 0 0 0 54.13 0c-2.04 0-3.94.96-5.07 2.56-2.02 2.88-1.33 6.38 1.73 8.72l.32.25 1.55-1.73-.31-.3c-.21-.19-.49-.5-.68-.71l-.16-.19c-1.02-1.01-1.34-2.22-.95-3.61.37-1.31 1.32-2.12 2.82-2.42.3-.06.61-.09.91-.09 1.45 0 2.73.72 3.33 1.88.6 1.16.47 3.07-.96 4.33-1.45 1.29-2.87 2.66-4.24 3.98l-.99.96c-.2.19-.39.36-.58.54-.63.58-1.27 1.17-1.78 1.89-.78 1.1-1.17 2.24-1.18 3.4v.11c0 .92.26 1.84.75 2.75 1.18 2.18 3.12 3.24 5.92 3.27h.23z" style="fill:#003d4d"/><path class="fil0" d="M70.49.01h-2.54v2.95c0 2.05.1 3.99.24 5.44h-.03c-.46-1.26-1.14-2.84-1.7-3.95L64.35.01h-3.02V12.4h2.53V9.36c0-2.22-.06-4.11-.14-5.55h.06c.45 1.28 1.16 2.9 1.73 4.09l2.17 4.5h2.81V.01zm-36.16 0H31.5v7.5c0 1.98-.62 2.75-1.69 2.75-1.05 0-1.69-.84-1.69-2.75V.01H25.3v7.16c0 3.58 1.44 5.41 4.46 5.41 2.96 0 4.57-1.83 4.57-5.37V.01zm9.51 0h-2.53v2.95c0 2.05.09 3.99.24 5.44h-.04c-.46-1.26-1.13-2.84-1.7-3.95L37.7.01h-3.02V12.4h2.54V9.36c0-2.22-.07-4.11-.15-5.55h.07c.45 1.28 1.15 2.9 1.73 4.09l2.16 4.5h2.81V.01zm.37 12.39h2.83V.01h-2.83V12.4z"/><path d="M13.15 13.01c-3.33 0-5.26 2.91-5.26 6.4 0 3.4 1.67 6.35 5.09 6.35 3.12 0 5.22-2.23 5.22-6.54 0-3.01-1.44-6.21-5.05-6.21zm57.34.18h-2.54v2.95c0 2.05.1 3.99.24 5.44h-.03c-.46-1.26-1.14-2.84-1.7-3.95l-2.11-4.44h-3.02v12.39h2.53v-3.04c0-2.22-.06-4.11-.14-5.55h.06c.45 1.28 1.16 2.9 1.73 4.09l2.17 4.5h2.81V13.19zm7.62.38c-.6-.28-1.51-.54-2.7-.54-2.87 0-4.47 1.65-4.47 3.75 0 1.48 1.01 2.7 2.96 3.59 1.29.58 1.85 1 1.85 1.75 0 .74-.58 1.25-1.76 1.25-1 0-2.04-.3-2.7-.64l-.48 2.37c.58.32 1.81.64 3.06.64 3 0 4.72-1.6 4.72-3.86 0-1.54-.82-2.76-2.79-3.64-1.51-.69-2.02-1.03-2.02-1.71 0-.61.53-1.14 1.62-1.14.99 0 1.73.29 2.18.51l.53-2.33zm-70.81 0c-.6-.28-1.51-.54-2.7-.54-2.87 0-4.47 1.65-4.47 3.75 0 1.48 1.01 2.7 2.97 3.59 1.28.58 1.84 1 1.84 1.75 0 .74-.58 1.25-1.77 1.25-.99 0-2.03-.3-2.69-.64L0 25.1c.58.32 1.81.64 3.06.64 3 0 4.72-1.6 4.72-3.86 0-1.54-.82-2.76-2.79-3.64-1.51-.69-2.02-1.03-2.02-1.71 0-.61.53-1.14 1.62-1.14.99 0 1.73.29 2.18.51l.53-2.33zm18.25 9.63h-4.1V13.19h-2.83v12.39h6.93V23.2zm8.78-10.01H31.5v7.5c0 1.98-.62 2.75-1.7 2.75-1.04 0-1.68-.84-1.68-2.75v-7.5H25.3v7.16c0 3.58 1.44 5.41 4.46 5.41 2.96 0 4.57-1.83 4.57-5.37v-7.2zm9.51 0h-9.16v2.47h3.15v9.92h2.83v-9.92h3.18v-2.47zm.37 12.39h2.83V13.19h-2.83v12.39zM13.07 15.34c1.45 0 2.17 1.81 2.17 3.98 0 2.42-.74 4.12-2.17 4.12-1.42 0-2.23-1.7-2.21-4.08 0-2.13.7-4.02 2.21-4.02z" style="fill:#fff"/></g></g></svg>